<svg xmlns="http://www.w3.org/2000/svg" viewBox="0 0 400 300" width="406" height="306" class="illustration styles_illustrationTablet__1DWOa"><g id="_499_innovation_outline" data-name="#499_innovation_outline"><path d="M130.57,144.27s9-8.44,14.26-9.19,5.45,3.19,3.85,6.94-16.8,12-19.71,18.21Z" fill="#ffc9b0"/><path d="M129,161.23a.84.84,0,0,1-.27,0,1,1,0,0,1-.72-1.06l1.59-16a1.08,1.08,0,0,1,.31-.63c.38-.35,9.31-8.67,14.81-9.45,2.35-.33,4,.14,5,1.43,1.57,2,.6,5.2-.12,6.89s-3.63,4-8.22,7.5-10,7.52-11.5,10.74A1,1,0,0,1,129,161.23Zm2.55-16.48-1.18,11.84a75.25,75.25,0,0,1,9.83-8.28c3.44-2.58,7-5.26,7.59-6.68.91-2.14,1.05-4,.37-4.89s-2.07-.83-3.16-.67C140.58,136.69,133.05,143.37,131.52,144.75Z" fill="#093f68"/><path d="M139.58,215s4.37-12.44,3.81-22.58a81.77,81.77,0,0,0,9.79-19.09c3.38-10.14,5.64-16.61,1.69-19.71s-7.6-.28-11.82,5.63-6.48,9.86-6.48,9.86-1.41-6.2-2-8.73,1.13-21.68,1.69-24.22,5.07-9,5.63-14.36-2.2-8.16-7.43-5.35-12,15.21-13.68,19.43-6.2,28.16-7,36.32-1.13,31.26,0,37.45S116.3,215,116.3,215Z" fill="#ffc9b0"/><path d="M116.12,216.08a1.53,1.53,0,0,1-.66-.15c-.74-.33-1.82-1.32-2.68-6.06-1.15-6.31-.85-29.59,0-37.73.86-8.3,5.4-32.31,7.11-36.59,1.79-4.47,8.62-17,14.13-19.94,3.42-1.83,5.54-1.28,6.71-.49,1.76,1.18,2.54,3.6,2.2,6.83-.38,3.57-2.34,7.46-3.92,10.58a23.18,23.18,0,0,0-1.73,3.89c-.59,2.63-2.19,21.56-1.69,23.78.33,1.5,1,4.29,1.42,6.31,1.08-1.74,2.84-4.45,5.24-7.8,3.32-4.65,6-6.89,8.59-7.27a6.09,6.09,0,0,1,4.66,1.43c4.43,3.48,2.2,10.16-1.17,20.26l-.19.56a82.6,82.6,0,0,1-9.72,19.07c.45,10.14-3.71,22.1-3.89,22.61a1,1,0,0,1-.94.67H116.46A1.86,1.86,0,0,1,116.12,216.08Zm-.33-1.9Zm0,0Zm.51-.06Zm21.87-97.73a7,7,0,0,0-3.21,1c-4.76,2.55-11.43,14.41-13.23,18.91-1.62,4.07-6.14,28.06-7,36.05s-1.13,31,0,37.17c.61,3.35,1.25,4.29,1.47,4.53h22.64c.87-2.7,4-13,3.53-21.52a1,1,0,0,1,.19-.64,82.06,82.06,0,0,0,9.66-18.83l.18-.55c3.1-9.3,5.15-15.45,1.84-18.05a4.11,4.11,0,0,0-3.15-1c-2,.29-4.31,2.34-7.25,6.45-4.14,5.8-6.4,9.73-6.42,9.77a1,1,0,0,1-1.84-.27s-1.41-6.2-2-8.74c-.61-2.78,1.1-22,1.69-24.64a23.73,23.73,0,0,1,1.91-4.36c1.5-3,3.37-6.68,3.71-9.89.25-2.42-.23-4.23-1.32-5A2.56,2.56,0,0,0,138.17,116.39Z" fill="#093f68"/><rect x="106.2" y="213.91" width="43.36" height="21.68" fill="#F45D48"/><path d="M149.56,236.59H106.2a1,1,0,0,1-1-1V213.91a1,1,0,0,1,1-1h43.36a1,1,0,0,1,1,1v21.68A1,1,0,0,1,149.56,236.59Zm-42.36-2h41.36V214.91H107.2Z" fill="#093f68"/><rect x="109.01" y="205.84" width="37.74" height="8.07" fill="#fff"/><path d="M146.75,214.91H109a1,1,0,0,1-1-1v-8.07a1,1,0,0,1,1-1h37.74a1,1,0,0,1,1,1v8.07A1,1,0,0,1,146.75,214.91Zm-36.74-2h35.74v-6.07H110Z" fill="#093f68"/><path d="M269.43,144.27s-9-8.44-14.26-9.19-5.45,3.19-3.85,6.94,16.8,12,19.71,18.21Z" fill="#ffc9b0"/><path d="M271,161.23a1,1,0,0,1-.91-.58c-1.51-3.22-6.81-7.21-11.5-10.74s-7.45-5.68-8.22-7.5-1.69-4.84-.12-6.89c1-1.29,2.68-1.77,5-1.43,5.5.78,14.43,9.1,14.81,9.45a1.08,1.08,0,0,1,.31.63l1.59,16a1,1,0,0,1-.72,1.06A.84.84,0,0,1,271,161.23ZM254,136a2.55,2.55,0,0,0-2.09.75c-.68.88-.54,2.75.37,4.89.6,1.42,4.15,4.1,7.59,6.68a75.25,75.25,0,0,1,9.83,8.28l-1.18-11.84c-1.53-1.38-9.06-8.06-13.45-8.68A7.37,7.37,0,0,0,254,136Z" fill="#093f68"/><path d="M260.42,215s-4.37-12.44-3.81-22.58a81.77,81.77,0,0,1-9.79-19.09c-3.38-10.14-5.64-16.61-1.69-19.71s7.6-.28,11.82,5.63,6.48,9.86,6.48,9.86,1.41-6.2,2-8.73-1.13-21.68-1.69-24.22-5.07-9-5.63-14.36,2.2-8.16,7.43-5.35,12,15.21,13.68,19.43,6.2,28.16,7,36.32,1.13,31.26,0,37.45S283.7,215,283.7,215Z" fill="#ffc9b0"/><path d="M283.88,216.08a1.86,1.86,0,0,1-.34,0H260.42a1,1,0,0,1-.94-.67c-.18-.51-4.34-12.47-3.89-22.61a82.6,82.6,0,0,1-9.72-19.07l-.19-.56c-3.37-10.1-5.6-16.78-1.17-20.26a6.09,6.09,0,0,1,4.66-1.43c2.62.38,5.27,2.62,8.59,7.27,2.4,3.35,4.16,6.06,5.24,7.8.46-2,1.09-4.81,1.42-6.31.5-2.22-1.1-21.15-1.69-23.78a23.18,23.18,0,0,0-1.73-3.89c-1.58-3.12-3.54-7-3.92-10.58-.34-3.23.44-5.65,2.2-6.83,1.17-.79,3.29-1.34,6.71.49,5.51,3,12.34,15.47,14.13,19.94,1.71,4.28,6.25,28.29,7.11,36.59.84,8.14,1.14,31.42,0,37.73-.86,4.74-1.94,5.73-2.68,6.06A1.53,1.53,0,0,1,283.88,216.08Zm.33-1.9Zm0,0Zm-.51-.06ZM261.14,214h22.64c.22-.24.86-1.18,1.47-4.53,1.12-6.18.82-29.12,0-37.17s-5.35-32-7-36.05c-1.8-4.5-8.47-16.36-13.23-18.91-2-1.07-3.63-1.28-4.65-.6s-1.57,2.54-1.32,5c.34,3.21,2.21,6.91,3.71,9.89a23.73,23.73,0,0,1,1.91,4.36c.59,2.66,2.3,21.86,1.69,24.64-.57,2.54-2,8.74-2,8.74a1,1,0,0,1-1.84.27s-2.28-4-6.42-9.77c-2.94-4.11-5.24-6.16-7.25-6.45a4.06,4.06,0,0,0-3.15,1c-3.31,2.6-1.26,8.75,1.84,18.05l.18.55a82.06,82.06,0,0,0,9.66,18.83,1,1,0,0,1,.19.64C257.14,201,260.27,211.34,261.14,214Z" fill="#093f68"/><rect x="250.44" y="213.91" width="43.36" height="21.68" transform="translate(544.24 449.51) rotate(-180)" fill="#F45D48"/><path d="M293.8,236.59H250.44a1,1,0,0,1-1-1V213.91a1,1,0,0,1,1-1H293.8a1,1,0,0,1,1,1v21.68A1,1,0,0,1,293.8,236.59Zm-42.36-2H292.8V214.91H251.44Z" fill="#093f68"/><rect x="253.25" y="205.84" width="37.74" height="8.07" transform="translate(544.24 419.76) rotate(-180)" fill="#fff"/><path d="M291,214.91H253.25a1,1,0,0,1-1-1v-8.07a1,1,0,0,1,1-1H291a1,1,0,0,1,1,1v8.07A1,1,0,0,1,291,214.91Zm-36.74-2H290v-6.07H254.25Z" fill="#093f68"/><path d="M182.94,179.06H217a0,0,0,0,1,0,0v3.81a11.73,11.73,0,0,1-11.73,11.73h-10.6a11.73,11.73,0,0,1-11.73-11.73v-3.81A0,0,0,0,1,182.94,179.06Z" fill="#093f68"/><path d="M205.27,195.61h-10.6a12.74,12.74,0,0,1-12.73-12.73v-3.82a1,1,0,0,1,1-1H217a1,1,0,0,1,1,1v3.82A12.74,12.74,0,0,1,205.27,195.61Zm-21.33-15.55v2.82a10.74,10.74,0,0,0,10.73,10.73h10.6A10.75,10.75,0,0,0,216,182.88v-2.82Z" fill="#093f68"/><path d="M236.2,113.41A35.75,35.75,0,1,0,172,135a52.4,52.4,0,0,1,10.69,31.68h35.62a50.9,50.9,0,0,1,10.41-31.33A35.55,35.55,0,0,0,236.2,113.41Z" fill="#fff"/><path d="M218.26,167.68H182.64a1,1,0,0,1-1-1,51.69,51.69,0,0,0-10.49-31.09,36.74,36.74,0,0,1,26.69-58.84,36.45,36.45,0,0,1,27.68,9.79,36.88,36.88,0,0,1,11.68,26.87A36.4,36.4,0,0,1,229.46,136a50,50,0,0,0-10.2,30.71A1,1,0,0,1,218.26,167.68Zm-34.63-2h33.64a51.86,51.86,0,0,1,10.61-30.94,34.39,34.39,0,0,0,7.32-21.33,34.86,34.86,0,0,0-11-25.41,34.75,34.75,0,0,0-51.41,46.38A53.75,53.75,0,0,1,183.63,165.68Z" fill="#093f68"/><rect x="178.32" y="176.6" width="43.29" height="9.89" rx="4.14" fill="#ffbc0e"/><path d="M217.47,187.5h-35a5.15,5.15,0,0,1-5.14-5.15v-1.6a5.15,5.15,0,0,1,5.14-5.15h35a5.15,5.15,0,0,1,5.14,5.15v1.6A5.15,5.15,0,0,1,217.47,187.5Zm-35-9.9a3.15,3.15,0,0,0-3.14,3.15v1.6a3.15,3.15,0,0,0,3.14,3.15h35a3.15,3.15,0,0,0,3.14-3.15v-1.6a3.15,3.15,0,0,0-3.14-3.15Z" fill="#093f68"/><rect x="178.32" y="166.71" width="43.29" height="9.89" rx="4.14" fill="#ffbc0e"/><path d="M217.47,177.6h-35a5.14,5.14,0,0,1-5.14-5.14v-1.6a5.15,5.15,0,0,1,5.14-5.15h35a5.15,5.15,0,0,1,5.14,5.15v1.6A5.14,5.14,0,0,1,217.47,177.6Zm-35-9.89a3.15,3.15,0,0,0-3.14,3.15v1.6a3.14,3.14,0,0,0,3.14,3.14h35a3.14,3.14,0,0,0,3.14-3.14v-1.6a3.15,3.15,0,0,0-3.14-3.15Z" fill="#093f68"/><rect x="178.32" y="156.82" width="43.29" height="9.89" rx="4.14" fill="#ffbc0e"/><path d="M217.47,167.71h-35a5.14,5.14,0,0,1-5.14-5.14V161a5.14,5.14,0,0,1,5.14-5.14h35a5.14,5.14,0,0,1,5.14,5.14v1.6A5.14,5.14,0,0,1,217.47,167.71Zm-35-9.88a3.14,3.14,0,0,0-3.14,3.14v1.6a3.14,3.14,0,0,0,3.14,3.14h35a3.14,3.14,0,0,0,3.14-3.14V161a3.14,3.14,0,0,0-3.14-3.14Z" fill="#093f68"/><rect x="183.25" y="98.71" width="34.06" height="34.06" rx="4.58" fill="#fff"/><path d="M212.72,133.77H187.83a5.59,5.59,0,0,1-5.58-5.58v-24.9a5.58,5.58,0,0,1,5.58-5.58h24.89a5.58,5.58,0,0,1,5.58,5.58v24.9A5.59,5.59,0,0,1,212.72,133.77ZM187.83,99.71a3.58,3.58,0,0,0-3.58,3.58v24.9a3.58,3.58,0,0,0,3.58,3.58h24.89a3.58,3.58,0,0,0,3.58-3.58v-24.9a3.58,3.58,0,0,0-3.58-3.58Z" fill="#093f68"/><rect x="188.99" y="104.46" width="22.57" height="22.57" fill="#F45D48"/><path d="M211.56,128H189a1,1,0,0,1-1-1V104.46a1,1,0,0,1,1-1h22.57a1,1,0,0,1,1,1V127A1,1,0,0,1,211.56,128ZM190,126h20.57V105.46H190Z" fill="#093f68"/><path d="M183.25,110.88h-7.07a1,1,0,0,1,0-2h7.07a1,1,0,0,1,0,2Z" fill="#093f68"/><path d="M183.25,118.13H171.5a1,1,0,0,1,0-2h11.75a1,1,0,0,1,0,2Z" fill="#093f68"/><path d="M182.46,126h-4.14a1,1,0,0,1,0-2h4.14a1,1,0,0,1,0,2Z" fill="#093f68"/><path d="M227.44,109.75h-9.35a1,1,0,0,1,0-2h9.35a1,1,0,0,1,0,2Z" fill="#093f68"/><path d="M222.76,118.13H217.3a1,1,0,0,1,0-2h5.46a1,1,0,0,1,0,2Z" fill="#093f68"/><path d="M225.54,126H217.3a1,1,0,0,1,0-2h8.24a1,1,0,0,1,0,2Z" fill="#093f68"/><path d="M206,99.71a1,1,0,0,1-1-1v-8a1,1,0,0,1,2,0v8A1,1,0,0,1,206,99.71Z" fill="#093f68"/><path d="M200,99.71a1,1,0,0,1-1-1v-4a1,1,0,0,1,2,0v4A1,1,0,0,1,200,99.71Z" fill="#093f68"/><path d="M191.15,99.71a1,1,0,0,1-1-1V92.8a1,1,0,1,1,2,0v5.91A1,1,0,0,1,191.15,99.71Z" fill="#093f68"/><path d="M191.15,140.81a1,1,0,0,1-1-1v-7a1,1,0,0,1,2,0v7A1,1,0,0,1,191.15,140.81Z" fill="#093f68"/><path d="M200,146.89a1,1,0,0,1-1-1V132.77a1,1,0,0,1,2,0v13.12A1,1,0,0,1,200,146.89Z" fill="#093f68"/><path d="M207.72,139.11a1,1,0,0,1-1-1v-5.34a1,1,0,0,1,2,0v5.34A1,1,0,0,1,207.72,139.11Z" fill="#093f68"/><path d="M200.27,111.23h-7a1,1,0,0,1,0-2h7a1,1,0,0,1,0,2Z" fill="#fff"/><path d="M152.51,104.1l-.16,0-14.57-2.38a1,1,0,0,1,.33-2l14.56,2.39a1,1,0,0,1-.16,2Z" fill="#dfeaef"/><path d="M169.94,78a1.05,1.05,0,0,1-.68-.26l-10.48-9.6a1,1,0,0,1-.06-1.42,1,1,0,0,1,1.41-.06l10.48,9.6a1,1,0,0,1-.67,1.74Z" fill="#dfeaef"/><path d="M249,104.1a1,1,0,0,1-.16-2l14.57-2.39a1,1,0,1,1,.32,2l-14.56,2.38Z" fill="#dfeaef"/><path d="M231.58,78a1,1,0,0,1-.68-1.74l10.48-9.6a1,1,0,1,1,1.35,1.48l-10.48,9.6A1,1,0,0,1,231.58,78Z" fill="#dfeaef"/><path d="M200.27,69.46a1,1,0,0,1-1-1V54a1,1,0,1,1,2,0V68.46A1,1,0,0,1,200.27,69.46Z" fill="#dfeaef"/></g></svg>